PathFileType	4	(X/Y/Z)	/Users/niels/Desktop/University/Third Semester/Perception and Action/Exam/Gymnastics Motion Tracking/Code for Gym Tracking/Analyzed Data/Webcam_Backflip/id2001_1_trajectory_Sports2D/id2001_1_trajectory_Sports2D_px_person00.trc
DataRate	CameraRate	NumFrames	NumMarkers	Units	OrigDataRate	OrigDataStartFrame	OrigNumFrames
29.888059701492537	29.888059701492537	8	22	m	29.888059701492537	134	268
Frame#	Time	Hip			RHip			RKnee			RAnkle			RBigToe			RSmallToe			RHeel			LHip			LKnee			LAnkle			LBigToe			LSmallToe			LHeel			Neck			Head			Nose			RShoulder			RElbow			RWrist			LShoulder			LElbow			LWrist		
		X1	Y1	Z1	X2	Y2	Z2	X3	Y3	Z3	X4	Y4	Z4	X5	Y5	Z5	X6	Y6	Z6	X7	Y7	Z7	X8	Y8	Z8	X9	Y9	Z9	X10	Y10	Z10	X11	Y11	Z11	X12	Y12	Z12	X13	Y13	Z13	X14	Y14	Z14	X15	Y15	Z15	X16	Y16	Z16	X17	Y17	Z17	X18	Y18	Z18	X19	Y19	Z19	X20	Y20	Z20	X21	Y21	Z21	X22	Y22	Z22
134	4.483395755305868	0.9469193202634134	-0.6420410605549727	0.0	0.9487292737057045	-0.6254627128637731	0.0	1.2698249237223933	-0.5161867596502824	0.0	1.3651771235786854	-0.8718973797342796	0.0	1.5169765239398867	-0.9023783998555164	0.0	1.463433016639127	-0.9264490838779722	0.0	1.3562525712007454	-0.9340279555259751	0.0	0.941746059692683	-0.6645017050288742	0.0	1.0188222891896896	-1.0135837078043408	0.0	1.2099715153434343	-0.9469094769752737	0.0	1.5049500427367077	-0.8316024238262467	0.0	1.5090252965782336	-0.8362197203253927	0.0	1.189836721991855	-1.0010065186931743	0.0	1.039259834223509	-0.23307838765650504	0.0	1.183118099622081	-0.08897888102268663	0.0	1.1644142560277744	-0.21805850818851977	0.0	0.9999790140199843	-0.23480275802334108	0.0	1.123413084893922	-0.3873447483512722	0.0	1.3464622838346918	-0.37982262347639967	0.0	1.0278826299517503	-0.27862142403513435	0.0	1.1394760598342597	-0.4219927992987699	0.0	1.3036303367792386	-0.3874277967591394	0.0
135	4.5168539325842705	0.9514420945960098	-0.6755829233082676	0.0	0.9495801067505152	-0.6625704294509668	0.0	1.259501681676464	-0.520059264250015	0.0	1.3819057123629388	-0.8562152409448828	0.0	1.5274235621343735	-0.8824888331706939	0.0	1.4763359722033602	-0.9090533550306209	0.0	1.3706062914825865	-0.9216159187455075	0.0	0.9557431452916408	-0.6968579415331533	0.0	1.0250769140280624	-1.0262723266158302	0.0	1.2819099479292808	-0.9081769843380354	0.0	1.506064453556236	-0.8374849741195216	0.0	1.5022615749803225	-0.84104158154865	0.0	1.2434508349935445	-0.9778681062458532	0.0	1.035609074826054	-0.2624737761724379	0.0	1.1772438307646256	-0.11634939912795904	0.0	1.1599553207887294	-0.24901288236319313	0.0	0.9952962693944165	-0.2765474042703204	0.0	1.1119204780749754	-0.4413471274244679	0.0	1.330201850138613	-0.43734916913349525	0.0	1.0232384801587486	-0.3039603408552128	0.0	1.1265792355408435	-0.4565122216269808	0.0	1.293929737315403	-0.42821809403659183	0.0
136	4.550312109862672	0.955763425134893	-0.7093915828076461	0.0	0.9510540680192697	-0.7001313921007069	0.0	1.2547874700878345	-0.543804147682925	0.0	1.3877400168390681	-0.8608991700929214	0.0	1.52450515338426	-0.8828680994683693	0.0	1.4800047342849019	-0.9082841632502276	0.0	1.3747019105977911	-0.9245496468541917	0.0	0.9674416111854696	-0.7294873776653122	0.0	1.0333673304594084	-1.0383833997983893	0.0	1.3334587454825886	-0.8913470225328136	0.0	1.5055210599805096	-0.8432863910693021	0.0	1.494630392793115	-0.8464818559513504	0.0	1.2797619821610233	-0.9574310974053697	0.0	1.0307387177988403	-0.29089446715518286	0.0	1.170825493482767	-0.14360667845662017	0.0	1.154890093504505	-0.27986734023849147	0.0	0.9889139376923419	-0.3161958929578522	0.0	1.101963015060139	-0.49294764864935453	0.0	1.3145345085149145	-0.49602269010948824	0.0	1.0197033359383907	-0.3324032002837891	0.0	1.113882363457491	-0.4950029432849759	0.0	1.2831588718672164	-0.47383571978306566	0.0
137	4.583770287141074	0.9581897192367558	-0.7392628560203541	0.0	0.9519311290369808	-0.7333793031947751	0.0	1.2567355669282048	-0.5824577125562608	0.0	1.382218199928449	-0.8819267254929947	0.0	1.5108777628354788	-0.8986400574983572	0.0	1.4794632204448155	-0.9182743567313236	0.0	1.3695534489549923	-0.9380101872006419	0.0	0.9743347523468773	-0.7587477312905982	0.0	1.042523746236378	-1.0494656930265296	0.0	1.3584517132737857	-0.8997103686817122	0.0	1.503951805197657	-0.847861678161983	0.0	1.4878666711952038	-0.8513037171746076	0.0	1.2886496143405086	-0.9415386349831891	0.0	1.0250629542523615	-0.3150468826816681	0.0	1.164988990292997	-0.1678430756946152	0.0	1.1498029450727532	-0.30726620052777537	0.0	0.9821495538894327	-0.35004743484424367	0.0	1.0937145707558276	-0.539285571804831	0.0	1.3004700549579988	-0.5550650606629447	0.0	1.0157063652874385	-0.359245813554906	0.0	1.1002713198988354	-0.5329420567461796	0.0	1.2684900488124449	-0.5211160576091994	0.0
138	4.617228464419476	0.9579341160673258	-0.7617990165505572	0.0	0.9515521596193098	-0.7588570890501618	0.0	1.263300678803107	-0.6313810110166918	0.0	1.3654904614005121	-0.9114274234944785	0.0	1.4879516300266717	-0.9208248475350836	0.0	1.4814996470224082	-0.9280947886611614	0.0	1.3571733336586302	-0.9523789578766538	0.0	0.975511828298628	-0.7813211861952533	0.0	1.0509050506540034	-1.059066218915151	0.0	1.36138296458087	-0.9262301145273595	0.0	1.502273997704763	-0.85075452310311	0.0	1.483123967106651	-0.8546847937915162	0.0	1.2656780832671852	-0.9308822835804668	0.0	1.0190928374220318	-0.3327380379295492	0.0	1.1601268289979123	-0.18622573327122122	0.0	1.145078447099039	-0.32789133902542017	0.0	0.976154927402748	-0.3757572660218398	0.0	1.0866756458580986	-0.5782711491526107	0.0	1.2877569246289795	-0.6135320924475457	0.0	1.0100389179251223	-0.38051453176372907	0.0	1.085252880795027	-0.5661674809714218	0.0	1.2484579424709268	-0.5673134557222688	0.0
139	4.650686641697878	0.9552596459283771	-0.7755007651372826	0.0	0.9500522931752925	-0.7752332027301515	0.0	1.2709374707949195	-0.686954691914595	0.0	1.3385474831373998	-0.9424106132087753	0.0	1.4548150994183002	-0.9417521509399887	0.0	1.4907462911280256	-0.9283036007177847	0.0	1.341207564667219	-0.9585466212822051	0.0	0.9715038890714051	-0.7952747790577769	0.0	1.056564304135767	-1.0666464987980075	0.0	1.3518057319365637	-0.9589628671866648	0.0	1.5010040873355512	-0.8521723026440817	0.0	1.4804952238888143	-0.8565588264234775	0.0	1.2148257116800898	-0.9248626357185348	0.0	1.013406858532245	-0.3433203255827282	0.0	1.1558664480606404	-0.19676362624142468	0.0	1.1409326027448699	-0.3392365446317767	0.0	0.9716936043726729	-0.39258329050219093	0.0	1.079624982520402	-0.6086134641611987	0.0	1.2744281199860414	-0.6695938817802823	0.0	1.0021112593743253	-0.3940050148148082	0.0	1.0692153775081976	-0.5919797945193951	0.0	1.2239078366890594	-0.6109752647099127	0.0
140	4.68414481897628	0.9511936791698417	-0.7808770703569792	0.0	0.9479721942626165	-0.7831278848985362	0.0	1.276652071465213	-0.7462181536404563	0.0	1.3033107827080963	-0.972921883882697	0.0	1.4091551089756735	-0.9600985955877596	0.0	1.5065503657016923	-0.9175274150536525	0.0	1.3259037089487453	-0.9540614497744482	0.0	0.9638320967969992	-0.8006318887837733	0.0	1.0578482493582055	-1.0717875987699668	0.0	1.3387006913459727	-0.987550802475325	0.0	1.5002452061579334	-0.8525986260015708	0.0	1.4794484174716949	-0.8573050953521874	0.0	1.146350338920111	-0.9221064701450489	0.0	1.0085346913030637	-0.34733886075373677	0.0	1.1514003900513403	-0.19883296150282614	0.0	1.1373496601615158	-0.3404422230186165	0.0	0.9690925218736961	-0.40106409500383516	0.0	1.0708193711900826	-0.6298522308189582	0.0	1.2573964514899987	-0.7204082372964284	0.0	0.992398587158035	-0.3993909711348374	0.0	1.0528867813447473	-0.6093347712365764	0.0	1.1970672123776287	-0.6518749965234343	0.0
141	4.717602996254683	0.9470211851024951	-0.7798127654034812	0.0	0.9460041656989013	-0.784440674304048	0.0	1.279173751009844	-0.8061165106012996	0.0	1.2629830930689565	-1.0031061978691636	0.0	1.3524115408495703	-0.9786016750262765	0.0	1.523819780951093	-0.9017241672425229	0.0	1.3142897532513516	-0.9434253840501227	0.0	0.9544342510543107	-0.7991733888257754	0.0	1.0541597605226503	-1.0744326275120228	0.0	1.3275210000492341	-1.0070596261271194	0.0	1.4999020407980213	-0.8525006436266969	0.0	1.4793370875483012	-0.8573844625219961	0.0	1.072524721883478	-0.921211847538215	0.0	1.0047949276935735	-0.3459162000268541	0.0	1.1458919131770287	-0.19320420885660294	0.0	1.134081296310889	-0.3326649546354725	0.0	0.9681869888073593	-0.4024493411070722	0.0	1.0587271642225327	-0.6424652741682491	0.0	1.233957905614823	-0.7632041130909542	0.0	0.9826657023592089	-0.3977633804329352	0.0	1.0367256344398958	-0.6187007098163106	0.0	1.1700515567205423	-0.6904057812190347	0.0
